<?xml version="1.0" standalone="no"?>
<!DOCTYPE svg PUBLIC "-//W3C//DTD SVG 20010904//EN"
 "http://www.w3.org/TR/2001/REC-SVG-20010904/DTD/svg10.dtd">
<svg version="1.0" xmlns="http://www.w3.org/2000/svg"
 width="784.000000pt" height="571.000000pt" viewBox="0 0 784.000000 571.000000"
 preserveAspectRatio="xMidYMid meet">

<g transform="translate(0.000000,571.000000) scale(0.100000,-0.100000)"
fill="#000000" stroke="none">
<path d="M23 5619 c25 -15 25 -173 0 -188 -14 -8 -5 -10 37 -10 42 0 51 2 38
10 -12 7 -18 22 -18 49 l0 40 45 0 c45 0 45 0 45 -34 0 -19 -7 -42 -16 -50
-14 -15 -11 -16 38 -16 41 1 49 3 36 11 -26 15 -26 173 -1 188 14 8 6 10 -35
11 -49 0 -52 -1 -38 -16 9 -8 16 -31 16 -50 0 -34 0 -34 -45 -34 l-45 0 0 40
c0 27 6 42 18 49 13 8 4 10 -38 10 -42 0 -51 -2 -37 -10z"/>
<path d="M408 5618 c16 -16 16 -170 0 -186 -9 -9 -4 -12 22 -12 l35 0 -3 105
-3 105 -32 0 c-24 0 -28 -3 -19 -12z"/>
<path d="M868 5618 c15 -15 16 -68 2 -68 -7 0 -7 -6 0 -19 23 -45 1 -101 -35
-87 -22 8 -21 92 3 105 16 10 16 10 0 11 -30 0 -58 -37 -58 -75 0 -42 40 -76
69 -58 9 6 32 8 51 5 29 -3 33 -2 23 9 -9 8 -13 44 -13 101 l0 88 -27 0 c-21
0 -24 -3 -15 -12z"/>
<path d="M958 5623 c8 -3 12 -33 12 -98 0 -65 -4 -95 -12 -98 -7 -3 7 -5 32
-5 25 0 39 2 33 5 -9 3 -13 34 -13 104 l0 99 -32 -1 c-18 0 -27 -3 -20 -6z"/>
<path d="M1232 5622 c-9 -7 -10 -20 0 -68 l12 -59 13 54 c18 70 10 94 -25 73z"/>
<path d="M1335 5619 c-9 -14 4 -99 15 -99 11 0 24 85 15 99 -3 6 -10 11 -15
11 -5 0 -12 -5 -15 -11z"/>
<path d="M1468 5623 c-10 -2 -21 -17 -25 -31 -3 -15 -11 -31 -17 -35 -8 -6 -7
-10 2 -14 7 -3 12 -25 12 -58 0 -33 -5 -55 -12 -58 -7 -3 7 -5 32 -5 25 0 39
2 33 5 -8 3 -13 25 -13 58 0 33 5 56 13 59 10 5 10 7 0 12 -15 6 -18 64 -4 64
5 0 11 -10 15 -22 4 -17 8 -20 17 -11 6 6 9 19 6 27 -6 16 -24 18 -59 9z"/>
<path d="M1738 5618 c15 -15 16 -68 2 -68 -7 0 -7 -6 0 -19 23 -45 1 -101 -35
-87 -22 8 -21 92 3 105 16 10 16 10 0 11 -30 0 -58 -37 -58 -75 0 -42 40 -76
69 -58 9 6 32 8 51 5 29 -3 33 -2 23 9 -9 8 -13 44 -13 101 l0 88 -27 0 c-21
0 -24 -3 -15 -12z"/>
<path d="M1873 5620 c-15 -6 -23 -18 -23 -34 0 -13 -6 -27 -12 -30 -10 -5 -10
-7 0 -12 16 -7 16 -96 0 -112 -9 -9 -2 -12 33 -11 24 0 38 3 32 6 -8 3 -13 25
-13 58 0 33 5 56 13 59 10 5 10 7 0 12 -15 7 -18 64 -3 64 6 0 10 -9 10 -20 0
-24 18 -27 27 -4 6 16 -12 34 -32 33 -5 0 -20 -4 -32 -9z"/>
<path d="M1957 5623 c-10 -9 -8 -32 5 -78 l11 -40 13 50 c9 35 10 53 2 62 -12
14 -21 16 -31 6z"/>
<path d="M285 5535 c-27 -26 -30 -41 -16 -78 11 -28 53 -43 79 -28 15 9 15 10
-3 11 -24 0 -45 18 -45 37 0 9 14 13 40 13 46 0 53 17 20 50 -26 26 -46 25
-75 -5z m59 -1 c10 -27 7 -34 -19 -34 -18 0 -25 5 -25 18 0 34 33 45 44 16z"/>
<path d="M513 5553 c-7 -2 -13 -17 -13 -32 0 -19 8 -32 30 -44 33 -20 40 -47
13 -48 -10 0 -13 -3 -6 -5 19 -8 53 15 53 36 0 10 -16 31 -35 46 -39 30 -43
40 -17 47 11 3 12 5 2 5 -8 0 -21 -2 -27 -5z"/>
<path d="M683 5548 c12 -10 16 -26 14 -61 -2 -50 11 -74 36 -64 11 4 12 17 5
63 -9 60 -19 74 -52 74 -18 0 -18 -1 -3 -12z"/>
<path d="M1072 5544 c-19 -13 -22 -24 -20 -57 4 -55 38 -78 87 -58 52 22 56
97 6 119 -34 16 -46 15 -73 -4z m66 -52 c2 -42 0 -54 -14 -59 -19 -7 -44 20
-44 48 0 35 20 71 38 67 13 -2 18 -15 20 -56z"/>
<path d="M1543 5553 c-7 -2 -13 -17 -13 -32 0 -19 8 -32 30 -44 33 -20 40 -47
13 -48 -10 0 -13 -3 -6 -5 19 -8 53 15 53 36 0 10 -16 31 -35 46 -39 30 -43
40 -17 47 11 3 12 5 2 5 -8 0 -21 -2 -27 -5z"/>
<path d="M565 5540 c3 -5 8 -10 11 -10 2 0 4 5 4 10 0 6 -5 10 -11 10 -5 0 -7
-4 -4 -10z"/>
<path d="M634 5535 c-3 -8 -3 -19 1 -25 11 -18 25 -11 25 15 0 27 -17 34 -26
10z"/>
<path d="M1595 5540 c3 -5 8 -10 11 -10 2 0 4 5 4 10 0 6 -5 10 -11 10 -5 0
-7 -4 -4 -10z"/>
<path d="M643 5476 c-26 -23 -27 -26 -12 -41 19 -20 56 -10 39 11 -8 9 -8 18
0 33 14 27 7 26 -27 -3z"/>
<path d="M1231 5456 c-9 -10 -8 -16 4 -26 19 -16 41 1 32 24 -8 20 -21 20 -36
2z"/>
<path d="M1333 5454 c-8 -21 13 -42 28 -27 13 13 5 43 -11 43 -6 0 -13 -7 -17
-16z"/>
<path d="M1953 5454 c-8 -21 13 -42 28 -27 13 13 5 43 -11 43 -6 0 -13 -7 -17
-16z"/>
<path d="M500 5440 c0 -5 5 -10 11 -10 5 0 7 5 4 10 -3 6 -8 10 -11 10 -2 0
-4 -4 -4 -10z"/>
<path d="M1530 5440 c0 -5 5 -10 11 -10 5 0 7 5 4 10 -3 6 -8 10 -11 10 -2 0
-4 -4 -4 -10z"/>
</g>
</svg>
